<svg width="76" height="73" viewBox="0 0 76 73" fill="none" xmlns="http://www.w3.org/2000/svg">
<g clip-path="url(#clip0)">
<path fill-rule="evenodd" clip-rule="evenodd" d="M1.54166 38.8631C0.568586 38.8631 -0.220245 39.6519 -0.220245 40.625V60.6667C-0.220245 61.6398 0.568586 62.4286 1.54166 62.4286H3.26577C3.00602 63.0752 2.86309 63.7813 2.86309 64.5208C2.86309 67.6225 5.37749 70.1369 8.47916 70.1369C11.5808 70.1369 14.0952 67.6225 14.0952 64.5208C14.0952 63.7813 13.9523 63.0752 13.6926 62.4286H23.3074C23.0477 63.0752 22.9048 63.7813 22.9048 64.5208C22.9048 67.6225 25.4192 70.1369 28.5208 70.1369C31.6225 70.1369 34.1369 67.6225 34.1369 64.5208C34.1369 63.7813 33.9939 63.0752 33.7342 62.4286H35.4583C36.4314 62.4286 37.2202 61.6398 37.2202 60.6667V52.9583C37.2202 52.491 37.0346 52.0429 36.7042 51.7125L32.0792 47.0875C31.7488 46.7571 31.3006 46.5714 30.8333 46.5714H26.4286V40.625C26.4286 39.6519 25.6398 38.8631 24.6667 38.8631H1.54166ZM28.5208 58.9048H33.6964V53.6881L30.1035 50.0952H26.4286V58.9048H28.5208ZM28.5208 62.4286C27.3653 62.4286 26.4286 63.3653 26.4286 64.5208C26.4286 65.6763 27.3653 66.6131 28.5208 66.6131C29.6763 66.6131 30.6131 65.6763 30.6131 64.5208C30.6131 63.3653 29.6763 62.4286 28.5208 62.4286ZM6.3869 64.5208C6.3869 63.3653 7.32364 62.4286 8.47916 62.4286C9.63468 62.4286 10.5714 63.3653 10.5714 64.5208C10.5714 65.6763 9.63468 66.6131 8.47916 66.6131C7.32364 66.6131 6.3869 65.6763 6.3869 64.5208ZM22.9048 58.9048H8.47916H3.30356V42.3869H22.9048V48.3333V58.9048Z" fill="url(#paint0_linear)"/>
</g>
<path d="M74.6356 27.8622V22.4489C74.6356 21.7009 74.0313 21.0966 73.2834 21.0966H44.7166C43.9686 21.0966 43.3643 21.7009 43.3643 22.4489V27.8622C42.6586 27.9045 42.0966 28.4919 42.0966 29.2103V34.7757C42.0939 35.7985 42.301 36.8111 42.7051 37.7507C42.8868 38.1817 43.1108 38.5874 43.3643 38.972V53.5512C43.3643 54.2949 43.9686 54.9034 44.7166 54.9034H73.2834C74.0313 54.9034 74.6356 54.2991 74.6356 53.5512V38.972C74.8932 38.5864 75.1139 38.1776 75.2949 37.7507C75.6963 36.8083 75.9034 35.8068 75.9034 34.7757V29.2103C75.9034 28.4919 75.3414 27.9045 74.6356 27.8622ZM46.407 24.1392H71.593V27.858H46.407V24.1392ZM61.7045 51.865H56.2954V47.4659H61.7045V51.865ZM71.593 51.865H64.4091V46.1137C64.4091 45.3657 63.8048 44.7614 63.0568 44.7614H54.9432C54.1952 44.7614 53.5909 45.3657 53.5909 46.1137V51.865H46.407V41.63C46.5295 41.6892 46.6563 41.7484 46.7873 41.7991C47.7296 42.1963 48.7312 42.3949 49.7623 42.3949C50.7934 42.3949 51.7907 42.1963 52.7373 41.7991C53.3204 41.554 53.8698 41.2413 54.3727 40.8652C54.3811 40.8609 54.3896 40.8609 54.398 40.8652C54.9025 41.2429 55.4518 41.5566 56.0334 41.7991C56.9758 42.1963 57.9773 42.3949 59.0084 42.3949C60.0396 42.3949 61.0369 42.1963 61.9834 41.7991C62.5666 41.554 63.116 41.2413 63.6188 40.8652C63.6273 40.8609 63.6358 40.8609 63.6442 40.8652C64.1486 41.2429 64.698 41.5566 65.2796 41.7991C66.222 42.1963 67.2235 42.3949 68.2546 42.3949C69.2857 42.3949 70.283 42.1963 71.2296 41.7991C71.3564 41.7441 71.4832 41.6892 71.6099 41.63V51.865H71.593ZM72.8608 34.7757C72.8608 37.3028 70.7901 39.3523 68.2419 39.3523C66.5178 39.3523 65.0134 38.4184 64.2189 37.0323C64.0964 36.821 63.8766 36.69 63.6315 36.69H63.6062C63.3653 36.69 63.1413 36.821 63.0188 37.0323C62.6133 37.7394 62.0279 38.3265 61.3221 38.734C60.6162 39.1415 59.815 39.3548 59 39.3523C57.2801 39.3523 55.7799 38.4226 54.9854 37.0408C54.8587 36.8252 54.6305 36.69 54.3811 36.69C54.1318 36.69 53.8994 36.8252 53.7768 37.0408C53.369 37.7451 52.7829 38.3296 52.0774 38.7354C51.3719 39.1412 50.5719 39.354 49.7581 39.3523C47.2099 39.3523 45.1392 37.3028 45.1392 34.7757V30.9217C45.1392 30.909 45.1476 30.9006 45.1603 30.9006H72.8397C72.8523 30.9006 72.8608 30.909 72.8608 30.9217V34.7757Z" fill="url(#paint1_linear)"/>
<g clip-path="url(#clip1)">
<path fill-rule="evenodd" clip-rule="evenodd" d="M24.8095 3.08332C24.8095 2.11025 23.9994 1.32141 23 1.32141C22.0006 1.32141 21.1905 2.11025 21.1905 3.08332V9.24998C21.1905 10.2231 22.0006 11.0119 23 11.0119C23.9994 11.0119 24.8095 10.2231 24.8095 9.24998V3.08332ZM24.8095 27.75C24.8095 26.7769 23.9994 25.9881 23 25.9881C22.0006 25.9881 21.1905 26.7769 21.1905 27.75V33.9166C21.1905 34.8898 22.0006 35.6786 23 35.6786C23.9994 35.6786 24.8095 34.8898 24.8095 33.9166V27.75ZM10.5263 6.35453C11.233 5.66646 12.3787 5.66646 13.0854 6.35453L17.5662 10.7175C18.2729 11.4055 18.2729 12.5211 17.5662 13.2092C16.8596 13.8972 15.7138 13.8972 15.0072 13.2092L10.5263 8.84621C9.81965 8.15819 9.81965 7.04261 10.5263 6.35453ZM30.9929 23.7908C30.2862 23.1027 29.1405 23.1027 28.4338 23.7908C27.7271 24.4789 27.7271 25.5945 28.4338 26.2825L32.9146 30.6454C33.6213 31.3335 34.767 31.3335 35.4737 30.6454C36.1803 29.9574 36.1803 28.8418 35.4737 28.1537L30.9929 23.7908ZM5.35715 18.5C5.35715 17.5269 6.1673 16.7381 7.16667 16.7381H13.5C14.4994 16.7381 15.3095 17.5269 15.3095 18.5C15.3095 19.4731 14.4994 20.2619 13.5 20.2619H7.16667C6.1673 20.2619 5.35715 19.4731 5.35715 18.5ZM32.5 16.7381C31.5006 16.7381 30.6905 17.5269 30.6905 18.5C30.6905 19.4731 31.5006 20.2619 32.5 20.2619H38.8333C39.8327 20.2619 40.6429 19.4731 40.6429 18.5C40.6429 17.5269 39.8327 16.7381 38.8333 16.7381H32.5ZM17.5662 23.7908C18.2729 24.4789 18.2729 25.5945 17.5662 26.2825L13.0854 30.6454C12.3787 31.3335 11.233 31.3335 10.5263 30.6454C9.81965 29.9574 9.81965 28.8418 10.5263 28.1537L15.0072 23.7908C15.7138 23.1027 16.8596 23.1027 17.5662 23.7908ZM35.4737 8.84621C36.1803 8.15819 36.1803 7.04261 35.4737 6.35453C34.767 5.66646 33.6213 5.66646 32.9146 6.35453L28.4338 10.7175C27.7271 11.4055 27.7271 12.5211 28.4338 13.2092C29.1405 13.8972 30.2862 13.8972 30.9929 13.2092L35.4737 8.84621Z" fill="url(#paint2_linear)"/>
<path d="M41.6984 0.29364H4.30157V36.7063H41.6984V0.29364Z" stroke="white"/>
</g>
<defs>
<linearGradient id="paint0_linear" x1="8.89984" y1="45.9465" x2="24.5631" y2="67.4649" gradientUnits="userSpaceOnUse">
<stop stop-color="#96D9C0"/>
<stop offset="1" stop-color="#4EB283"/>
</linearGradient>
<linearGradient id="paint1_linear" x1="50.3316" y1="28.7537" x2="67.9573" y2="48.98" gradientUnits="userSpaceOnUse">
<stop stop-color="#96D9C0"/>
<stop offset="1" stop-color="#4EB283"/>
</linearGradient>
<linearGradient id="paint2_linear" x1="13.9524" y1="9.10316" x2="31.7937" y2="30.1301" gradientUnits="userSpaceOnUse">
<stop stop-color="#96D9C0"/>
<stop offset="1" stop-color="#4EB283"/>
</linearGradient>
<clipPath id="clip0">
<rect y="36" width="37" height="37" fill="white"/>
</clipPath>
<clipPath id="clip1">
<rect x="4" width="38" height="37" fill="white"/>
</clipPath>
</defs>
</svg>
