<svg width="59" height="59" xmlns="http://www.w3.org/2000/svg">
<path fill-rule="evenodd" clip-rule="evenodd" d="M32.5 3.25C32.5 1.59315 31.1569 0.25 29.5 0.25C27.8431 0.25 26.5 1.59315 26.5 3.25V13.75C26.5 15.4069 27.8431 16.75 29.5 16.75C31.1569 16.75 32.5 15.4069 32.5 13.75V3.25ZM32.5 45.25C32.5 43.5931 31.1569 42.25 29.5 42.25C27.8431 42.25 26.5 43.5931 26.5 45.25V55.75C26.5 57.4069 27.8431 58.75 29.5 58.75C31.1569 58.75 32.5 57.4069 32.5 55.75V45.25ZM8.8199 8.8199C9.9915 7.64833 11.891 7.64833 13.0626 8.8199L20.4913 16.2487C21.6629 17.4202 21.6629 19.3197 20.4913 20.4913C19.3198 21.6629 17.4203 21.6629 16.2487 20.4913L8.8199 13.0625C7.64836 11.891 7.64836 9.9915 8.8199 8.8199ZM42.7513 38.5087C41.5798 37.3371 39.6803 37.3371 38.5087 38.5087C37.3371 39.6803 37.3371 41.5798 38.5087 42.7513L45.9374 50.1801C47.109 51.3516 49.0085 51.3516 50.1801 50.1801C51.3516 49.0085 51.3516 47.109 50.1801 45.9374L42.7513 38.5087ZM0.25 29.5C0.25 27.8431 1.59315 26.5 3.25 26.5H13.75C15.4069 26.5 16.75 27.8431 16.75 29.5C16.75 31.1569 15.4069 32.5 13.75 32.5H3.25C1.59315 32.5 0.25 31.1569 0.25 29.5ZM45.25 26.5C43.5931 26.5 42.25 27.8431 42.25 29.5C42.25 31.1569 43.5931 32.5 45.25 32.5H55.75C57.4069 32.5 58.75 31.1569 58.75 29.5C58.75 27.8431 57.4069 26.5 55.75 26.5H45.25ZM20.4913 38.5087C21.6629 39.6803 21.6629 41.5798 20.4913 42.7513L13.0626 50.1801C11.891 51.3516 9.9915 51.3516 8.8199 50.1801C7.64836 49.0085 7.64836 47.109 8.8199 45.9374L16.2487 38.5087C17.4203 37.3371 19.3198 37.3371 20.4913 38.5087ZM50.1801 13.0625C51.3516 11.891 51.3516 9.9915 50.1801 8.8199C49.0085 7.64833 47.109 7.64833 45.9374 8.8199L38.5087 16.2487C37.3371 17.4202 37.3371 19.3197 38.5087 20.4913C39.6803 21.6629 41.5798 21.6629 42.7513 20.4913L50.1801 13.0625Z" fill="url(#paint0_linear)"/>
<defs>
<linearGradient id="paint0_linear" x1="14.5" y1="13.5" x2="45" y2="48.5" gradientUnits="userSpaceOnUse">
<stop stop-color="#96D9C0"/>
<stop offset="1" stop-color="#4EB283"/>
</linearGradient>
</defs>
</svg>
