<svg width="60" height="59" xmlns="http://www.w3.org/2000/svg">
<path d="M55.6726 11.5042V2.42897C55.6726 1.17501 54.6418 0.161926 53.3658 0.161926H4.63427C3.35831 0.161926 2.32745 1.17501 2.32745 2.42897V11.5042C1.12358 11.5751 0.164809 12.5598 0.164809 13.7642V23.0945C0.160193 24.8093 0.513495 26.5067 1.20288 28.082C1.51286 28.8046 1.89492 29.4847 2.32745 30.1294V54.571C2.32745 55.8179 3.35831 56.8381 4.63427 56.8381H53.3658C54.6418 56.8381 55.6726 55.825 55.6726 54.571V30.1294C56.1119 29.4831 56.4885 28.7976 56.7972 28.082C57.482 26.5022 57.8353 24.8231 57.8353 23.0945V13.7642C57.8353 12.5598 56.8765 11.5751 55.6726 11.5042ZM7.51779 5.26278H50.4823V11.4972H7.51779V5.26278ZM33.6137 51.7443H24.3864V44.3693H33.6137V51.7443ZM50.4823 51.7443H38.2273V42.1023C38.2273 40.8483 37.1964 39.8352 35.9205 39.8352H22.0796C20.8036 39.8352 19.7728 40.8483 19.7728 42.1023V51.7443H7.51779V34.5856C7.72685 34.6848 7.94311 34.784 8.16658 34.869C9.77415 35.5349 11.4826 35.8679 13.2416 35.8679C15.0005 35.8679 16.7018 35.5349 18.3166 34.869C19.3114 34.4581 20.2485 33.9338 21.1064 33.3033C21.1208 33.2962 21.1352 33.2962 21.1496 33.3033C22.0102 33.9365 22.9472 34.4624 23.9394 34.869C25.547 35.5349 27.2555 35.8679 29.0145 35.8679C30.7734 35.8679 32.4747 35.5349 34.0894 34.869C35.0843 34.4581 36.0214 33.9338 36.8793 33.3033C36.8937 33.2962 36.9081 33.2962 36.9225 33.3033C37.783 33.9365 38.7201 34.4624 39.7123 34.869C41.3199 35.5349 43.0284 35.8679 44.7873 35.8679C46.5463 35.8679 48.2475 35.5349 49.8623 34.869C50.0786 34.7769 50.2948 34.6848 50.5111 34.5856V51.7443H50.4823ZM52.6449 23.0945C52.6449 27.331 49.1126 30.767 44.7657 30.767C41.8245 30.767 39.2582 29.2014 37.9029 26.8776C37.6939 26.5234 37.319 26.3038 36.9009 26.3038H36.8576C36.4467 26.3038 36.0647 26.5234 35.8556 26.8776C35.164 28.063 34.1654 29.0473 32.9612 29.7304C31.7571 30.4136 30.3904 30.7712 29 30.767C26.066 30.767 23.5069 29.2084 22.1517 26.8918C21.9354 26.5305 21.5461 26.3038 21.1208 26.3038C20.6955 26.3038 20.299 26.5305 20.0899 26.8918C19.3943 28.0726 18.3944 29.0525 17.1909 29.7328C15.9874 30.4131 14.6228 30.7698 13.2344 30.767C8.88746 30.767 5.35515 27.331 5.35515 23.0945V16.6334C5.35515 16.6122 5.36957 16.598 5.39119 16.598H52.6089C52.6305 16.598 52.6449 16.6122 52.6449 16.6334V23.0945Z" fill="url(#paint0_linear)"/>
<defs>
<linearGradient id="paint0_linear" x1="14.2127" y1="12.9988" x2="43.6872" y2="47.4155" gradientUnits="userSpaceOnUse">
<stop stop-color="#96D9C0"/>
<stop offset="1" stop-color="#4EB283"/>
</linearGradient>
</defs>
</svg>
