<svg width="63" height="63" viewBox="0 0 63 63" fill="none" xmlns="http://www.w3.org/2000/svg">
<g clip-path="url(#clip0)">
<path fill-rule="evenodd" clip-rule="evenodd" d="M2.625 4.875C0.968146 4.875 -0.375 6.21815 -0.375 7.875V42C-0.375 43.6569 0.968146 45 2.625 45H5.56064C5.11837 46.101 4.875 47.3033 4.875 48.5625C4.875 53.8437 9.15628 58.125 14.4375 58.125C19.7187 58.125 24 53.8437 24 48.5625C24 47.3033 23.7566 46.101 23.3144 45H39.6856C39.2434 46.101 39 47.3033 39 48.5625C39 53.8437 43.2813 58.125 48.5625 58.125C53.8437 58.125 58.125 53.8437 58.125 48.5625C58.125 47.3033 57.8816 46.101 57.4394 45H60.375C62.0319 45 63.375 43.6569 63.375 42V28.875C63.375 28.0793 63.0589 27.3163 62.4963 26.7537L54.6213 18.8787C54.0587 18.3161 53.2957 18 52.5 18H45V7.875C45 6.21815 43.6569 4.875 42 4.875H2.625ZM48.5625 39H57.375V30.1176L51.2574 24H45V39H48.5625ZM48.5625 45C46.595 45 45 46.595 45 48.5625C45 50.53 46.595 52.125 48.5625 52.125C50.53 52.125 52.125 50.53 52.125 48.5625C52.125 46.595 50.53 45 48.5625 45ZM10.875 48.5625C10.875 46.595 12.47 45 14.4375 45C16.405 45 18 46.595 18 48.5625C18 50.53 16.405 52.125 14.4375 52.125C12.47 52.125 10.875 50.53 10.875 48.5625ZM39 39H14.4375H5.625V10.875H39V21V39Z" fill="url(#paint0_linear)"/>
</g>
<defs>
<linearGradient id="paint0_linear" x1="15.1538" y1="16.9359" x2="41.8236" y2="53.5753" gradientUnits="userSpaceOnUse">
<stop stop-color="#96D9C0"/>
<stop offset="1" stop-color="#4EB283"/>
</linearGradient>
<clipPath id="clip0">
<rect width="63" height="63" fill="white"/>
</clipPath>
</defs>
</svg>
