<svg width="90" height="29" viewBox="0 0 90 29" fill="none" xmlns="http://www.w3.org/2000/svg">
<path d="M18.8914 9.48867C18.8914 9.55713 18.8845 9.63928 18.8709 9.73513C18.8709 9.83097 18.8573 9.94051 18.8301 10.0637C18.8165 10.1733 18.7892 10.3034 18.7484 10.454C18.7212 10.6046 18.6803 10.7757 18.6259 10.9674L13.1525 27.5418C13.0844 27.7746 12.9891 27.9662 12.8665 28.1169C12.7576 28.2538 12.567 28.3633 12.2947 28.4455C12.036 28.5276 11.6752 28.5824 11.2123 28.6098C10.763 28.6372 10.1707 28.6509 9.43546 28.6509C8.71385 28.6509 8.12158 28.6303 7.65866 28.5892C7.20935 28.5619 6.85535 28.5071 6.59666 28.4249C6.33796 28.3428 6.14735 28.2332 6.02481 28.0963C5.91589 27.9457 5.82739 27.7609 5.75931 27.5418L0.285923 10.9674C0.204231 10.6936 0.136154 10.4471 0.0816923 10.228C0.0408462 10.009 0.0136154 9.85151 0 9.75567C0 9.65982 0 9.57082 0 9.48867C0 9.35175 0.0340385 9.23536 0.102115 9.13952C0.183808 9.02998 0.319962 8.94098 0.510577 8.87252C0.701192 8.80406 0.959885 8.75614 1.28665 8.72875C1.62704 8.70137 2.04912 8.68768 2.55289 8.68768C3.11112 8.68768 3.56042 8.70822 3.90081 8.74929C4.24119 8.77668 4.50669 8.8246 4.69731 8.89306C4.90154 8.94783 5.0445 9.03683 5.12619 9.16006C5.20789 9.26959 5.27596 9.40652 5.33042 9.57082L9.47631 23.0234L9.59885 23.5368L9.72139 23.0234L13.806 9.57082C13.8469 9.40652 13.9081 9.26959 13.9898 9.16006C14.0851 9.03683 14.2281 8.94783 14.4187 8.89306C14.6093 8.8246 14.8612 8.77668 15.1744 8.74929C15.5011 8.70822 15.9232 8.68768 16.4406 8.68768C16.9444 8.68768 17.3528 8.70137 17.666 8.72875C17.9927 8.75614 18.2446 8.80406 18.4216 8.87252C18.5986 8.94098 18.7212 9.02998 18.7892 9.13952C18.8573 9.23536 18.8914 9.35175 18.8914 9.48867Z" fill="white"/>
<path d="M35.6823 18.1353C35.6823 18.7651 35.5393 19.2306 35.2534 19.5319C34.9811 19.8331 34.5999 19.9837 34.1097 19.9837H23.02C23.02 20.7642 23.1085 21.4762 23.2855 22.1197C23.4761 22.7495 23.7688 23.2904 24.1637 23.7422C24.5721 24.1804 25.0895 24.5158 25.7158 24.7486C26.3558 24.9813 27.1182 25.0977 28.0032 25.0977C28.9018 25.0977 29.6915 25.0361 30.3723 24.9129C31.0531 24.776 31.6385 24.6322 32.1287 24.4816C32.6325 24.3173 33.0477 24.1735 33.3745 24.0503C33.7013 23.9134 33.9668 23.8449 34.171 23.8449C34.2935 23.8449 34.3956 23.8723 34.4773 23.9271C34.559 23.9681 34.6271 24.0503 34.6816 24.1735C34.736 24.2967 34.7701 24.4747 34.7837 24.7075C34.8109 24.9266 34.8245 25.2073 34.8245 25.5496C34.8245 25.8508 34.8177 26.111 34.8041 26.33C34.7905 26.5354 34.7701 26.7134 34.7428 26.864C34.7156 27.0146 34.6748 27.1447 34.6203 27.2542C34.5658 27.3501 34.491 27.4459 34.3956 27.5418C34.314 27.6376 34.0757 27.7677 33.6808 27.932C33.286 28.0963 32.7822 28.2606 32.1695 28.4249C31.5568 28.5755 30.8556 28.7056 30.066 28.8152C29.2763 28.9384 28.4321 29 27.5335 29C25.9133 29 24.4905 28.7946 23.2651 28.3839C22.0533 27.9731 21.039 27.3501 20.222 26.5149C19.4051 25.6797 18.7924 24.6254 18.384 23.352C17.9891 22.0786 17.7917 20.5862 17.7917 18.8746C17.7917 17.2453 18.0027 15.7802 18.4248 14.4795C18.8469 13.165 19.4596 12.0559 20.2629 11.1523C21.0662 10.2349 22.0397 9.53659 23.1834 9.05737C24.3407 8.57814 25.641 8.33853 27.0842 8.33853C28.6091 8.33853 29.9094 8.56445 30.985 9.01629C32.0742 9.46813 32.966 10.098 33.6604 10.9058C34.3548 11.7 34.8654 12.6447 35.1921 13.7401C35.5189 14.8355 35.6823 16.0267 35.6823 17.3137V18.1353ZM30.6991 16.6565C30.7399 15.2051 30.4472 14.0687 29.8209 13.2472C29.2082 12.4119 28.2551 11.9943 26.9616 11.9943C26.3081 11.9943 25.7363 12.1176 25.2461 12.364C24.7696 12.6105 24.3679 12.9459 24.0411 13.3704C23.728 13.7812 23.4829 14.2741 23.3059 14.8492C23.1425 15.4105 23.0472 16.013 23.02 16.6565H30.6991Z" fill="white"/>
<path d="M54.6585 27.8293C54.6585 27.9662 54.6177 28.0895 54.536 28.199C54.4543 28.2949 54.3181 28.377 54.1275 28.4455C53.9369 28.5139 53.6714 28.5619 53.331 28.5892C53.0043 28.6303 52.5958 28.6509 52.1056 28.6509C51.6019 28.6509 51.1798 28.6303 50.8394 28.5892C50.5126 28.5619 50.2539 28.5139 50.0633 28.4455C49.8727 28.377 49.7366 28.2949 49.6549 28.199C49.5732 28.0895 49.5323 27.9662 49.5323 27.8293V17.3754C49.5323 16.4854 49.4642 15.7871 49.3281 15.2805C49.2056 14.7738 49.0218 14.3425 48.7767 13.9865C48.5316 13.6169 48.2116 13.3362 47.8168 13.1445C47.4356 12.9391 46.9862 12.8364 46.4689 12.8364C45.8153 12.8364 45.155 13.076 44.4878 13.5552C43.8207 14.0345 43.1263 14.7328 42.4047 15.6501V27.8293C42.4047 27.9662 42.3638 28.0895 42.2821 28.199C42.2004 28.2949 42.0575 28.377 41.8533 28.4455C41.6626 28.5139 41.4039 28.5619 41.0772 28.5892C40.7504 28.6303 40.3351 28.6509 39.8314 28.6509C39.3276 28.6509 38.9123 28.6303 38.5856 28.5892C38.2588 28.5619 37.9933 28.5139 37.7891 28.4455C37.5984 28.377 37.4623 28.2949 37.3806 28.199C37.2989 28.0895 37.2581 27.9662 37.2581 27.8293V9.50921C37.2581 9.37228 37.2921 9.2559 37.3602 9.16006C37.4282 9.05052 37.5508 8.96152 37.7278 8.89306C37.9048 8.8246 38.1294 8.77668 38.4017 8.74929C38.6877 8.70822 39.0417 8.68768 39.4637 8.68768C39.8994 8.68768 40.2603 8.70822 40.5462 8.74929C40.8321 8.77668 41.0499 8.8246 41.1997 8.89306C41.3631 8.96152 41.4788 9.05052 41.5469 9.16006C41.615 9.2559 41.649 9.37228 41.649 9.50921V11.6246C42.6566 10.5293 43.6777 9.70774 44.7125 9.16006C45.7609 8.61237 46.8501 8.33853 47.9802 8.33853C49.2192 8.33853 50.2607 8.54391 51.1049 8.95467C51.9627 9.36544 52.6503 9.92682 53.1676 10.6388C53.6986 11.3371 54.0799 12.1586 54.3113 13.1034C54.5428 14.0482 54.6585 15.1846 54.6585 16.5127V27.8293Z" fill="white"/>
<path d="M74.3291 27.8293C74.3291 27.9799 74.2951 28.11 74.227 28.2195C74.1589 28.3154 74.0432 28.3975 73.8798 28.466C73.7164 28.5345 73.4918 28.5824 73.2059 28.6098C72.9336 28.6372 72.5932 28.6509 72.1847 28.6509C71.749 28.6509 71.395 28.6372 71.1227 28.6098C70.8504 28.5824 70.6257 28.5345 70.4487 28.466C70.2854 28.3975 70.1628 28.3154 70.0811 28.2195C70.0131 28.11 69.979 27.9799 69.979 27.8293V25.796C69.0396 26.8093 68.0524 27.5966 67.0177 28.1579C65.9965 28.7193 64.8596 29 63.607 29C62.2182 29 61.0405 28.733 60.0738 28.199C59.1207 27.6513 58.3379 26.9188 57.7252 26.0014C57.1261 25.084 56.6904 24.0161 56.4181 22.7975C56.1458 21.5652 56.0096 20.2712 56.0096 18.9157C56.0096 17.2864 56.1798 15.8213 56.5202 14.5205C56.8742 13.2198 57.3848 12.1107 58.0519 11.1933C58.7191 10.276 59.5496 9.57082 60.5435 9.0779C61.5375 8.58499 62.6812 8.33853 63.9746 8.33853C64.9958 8.33853 65.9216 8.55076 66.7522 8.97521C67.5827 9.38598 68.4064 9.99528 69.2234 10.8031V0.883144C69.2234 0.746223 69.2574 0.622993 69.3255 0.513456C69.4072 0.403919 69.5433 0.31492 69.7339 0.246459C69.9382 0.164306 70.2037 0.102691 70.5304 0.0616147C70.8572 0.0205382 71.2725 0 71.7762 0C72.28 0 72.6953 0.0205382 73.0221 0.0616147C73.3488 0.102691 73.6075 0.164306 73.7981 0.246459C73.9887 0.31492 74.1249 0.403919 74.2066 0.513456C74.2883 0.622993 74.3291 0.746223 74.3291 0.883144V27.8293ZM69.2234 15.5885C68.4881 14.6575 67.7801 13.9455 67.0994 13.4525C66.4322 12.9596 65.731 12.7132 64.9958 12.7132C64.3286 12.7132 63.75 12.8843 63.2598 13.2266C62.7833 13.5552 62.3952 14.0002 62.0957 14.5616C61.8098 15.123 61.5919 15.7528 61.4422 16.4511C61.306 17.1357 61.2379 17.8409 61.2379 18.5666C61.2379 19.3333 61.2992 20.0796 61.4217 20.8052C61.5443 21.5309 61.7417 22.1813 62.014 22.7564C62.2999 23.3178 62.6744 23.7696 63.1373 24.1119C63.6002 24.4542 64.1857 24.6254 64.8937 24.6254C65.2477 24.6254 65.5881 24.5774 65.9148 24.4816C66.2552 24.372 66.5956 24.2009 66.936 23.9681C67.29 23.7354 67.6508 23.4341 68.0184 23.0644C68.386 22.6811 68.7877 22.2155 69.2234 21.6678V15.5885Z" fill="white"/>
<path d="M81.991 27.8293C81.991 27.9662 81.9501 28.0895 81.8684 28.199C81.7867 28.2949 81.6438 28.377 81.4395 28.4455C81.2489 28.5139 80.9902 28.5619 80.6635 28.5892C80.3367 28.6303 79.9214 28.6509 79.4177 28.6509C78.9139 28.6509 78.4986 28.6303 78.1718 28.5892C77.8451 28.5619 77.5796 28.5139 77.3753 28.4455C77.1847 28.377 77.0486 28.2949 76.9669 28.199C76.8852 28.0895 76.8443 27.9662 76.8443 27.8293V9.55028C76.8443 9.41336 76.8852 9.29698 76.9669 9.20113C77.0486 9.0916 77.1847 9.0026 77.3753 8.93414C77.5796 8.85198 77.8451 8.79037 78.1718 8.74929C78.4986 8.70822 78.9139 8.68768 79.4177 8.68768C79.9214 8.68768 80.3367 8.70822 80.6635 8.74929C80.9902 8.79037 81.2489 8.85198 81.4395 8.93414C81.6438 9.0026 81.7867 9.0916 81.8684 9.20113C81.9501 9.29698 81.991 9.41336 81.991 9.55028V27.8293ZM82.379 3.30666C82.379 4.34726 82.168 5.0661 81.7459 5.46317C81.3238 5.86025 80.5409 6.05878 79.3972 6.05878C78.2399 6.05878 77.457 5.86709 77.0486 5.48371C76.6537 5.10033 76.4563 4.40888 76.4563 3.40935C76.4563 2.36874 76.6605 1.64991 77.069 1.25283C77.4911 0.842068 78.2808 0.636686 79.4381 0.636686C80.5818 0.636686 81.3578 0.835222 81.7663 1.23229C82.1748 1.61568 82.379 2.30713 82.379 3.30666Z" fill="white"/>
<path d="M89.612 27.8293C89.612 27.9662 89.5711 28.0895 89.4894 28.199C89.4077 28.2949 89.2648 28.377 89.0605 28.4455C88.8699 28.5139 88.6112 28.5619 88.2845 28.5892C87.9577 28.6303 87.5424 28.6509 87.0386 28.6509C86.5349 28.6509 86.1196 28.6303 85.7928 28.5892C85.4661 28.5619 85.2006 28.5139 84.9963 28.4455C84.8057 28.377 84.6696 28.2949 84.5879 28.199C84.5062 28.0895 84.4653 27.9662 84.4653 27.8293V9.55028C84.4653 9.41336 84.5062 9.29698 84.5879 9.20113C84.6696 9.0916 84.8057 9.0026 84.9963 8.93414C85.2006 8.85198 85.4661 8.79037 85.7928 8.74929C86.1196 8.70822 86.5349 8.68768 87.0386 8.68768C87.5424 8.68768 87.9577 8.70822 88.2845 8.74929C88.6112 8.79037 88.8699 8.85198 89.0605 8.93414C89.2648 9.0026 89.4077 9.0916 89.4894 9.20113C89.5711 9.29698 89.612 9.41336 89.612 9.55028V27.8293ZM90 3.30666C90 4.34726 89.789 5.0661 89.3669 5.46317C88.9448 5.86025 88.1619 6.05878 87.0182 6.05878C85.8609 6.05878 85.078 5.86709 84.6696 5.48371C84.2747 5.10033 84.0773 4.40888 84.0773 3.40935C84.0773 2.36874 84.2815 1.64991 84.69 1.25283C85.1121 0.842068 85.9018 0.636686 87.0591 0.636686C88.2028 0.636686 88.9788 0.835222 89.3873 1.23229C89.7958 1.61568 90 2.30713 90 3.30666Z" fill="white"/>
</svg>
